# xmcd
#
# Track frame offsets:
#	150
#	15906
#	32413
#	49071
#	61828
#	75786
#	91094
#	105951
#	124107
#	140314
#	156672
#	172730
#	189088
#	208596
#
# Disc length: 3085 seconds
#
# Revision: 0
# Processed by: cddbd v1.5.1PL0 Copyright (c) Steve Scherf et al.
# Submitted via: EasyCDDAExtractor 4.6.9.1
#
DISCID=950c0b0e
DTITLE=Toby Keith - Greatest Hits Vol 2
DYEAR=2004
DGENRE=Country
TTITLE0=How Do You Like Me Now?
TTITLE1=Country Comes To Town
TTITLE2=You Shouldn't Kiss Me Like This
TTITLE3=I'm Just Talkin' About Tonight
TTITLE4=I Wanna Talk About Me
TTITLE5=My List
TTITLE6=Courtesy Of The Red, White and Blue (The Angry American)
TTITLE7=Who's Your Daddy
TTITLE8=Beer For My Horses (Duet With Willie Nelson)
TTITLE9=(What happens Down In Mexico) Stays in Mexico
TTITLE10=Mockingbird (Duet With Krystal)
TTITLE11=Go With Her
TTITLE12=You Ain't Much Fun (live)
TTITLE13=Should've Been A Cowboy (live)
EXTD=
EXTT0=
EXTT1=
EXTT2=
EXTT3=
EXTT4=
EXTT5=
EXTT6=
EXTT7=
EXTT8=
EXTT9=
EXTT10=
EXTT11=
EXTT12=
EXTT13=
PLAYORDER=
